<?xml version="1.0" encoding="UTF-8" standalone="no"?>
<svg
   xmlns:dc="http://purl.org/dc/elements/1.1/"
   xmlns:cc="http://creativecommons.org/ns#"
   xmlns:rdf="http://www.w3.org/1999/02/22-rdf-syntax-ns#"
   xmlns:svg="http://www.w3.org/2000/svg"
   xmlns="http://www.w3.org/2000/svg"
   xmlns:sodipodi="http://sodipodi.sourceforge.net/DTD/sodipodi-0.dtd"
   xmlns:inkscape="http://www.inkscape.org/namespaces/inkscape"
   width="202.66418"
   height="201.25563"
   viewBox="0 0 53.621567 53.248886"
   version="1.1"
   id="svg8"
   sodipodi:docname="logo_herbig_v1.0.svg"
   inkscape:version="1.0.1 (3bc2e813f5, 2020-09-07)">
  <defs
     id="defs2">
    <rect
       x="-6.9622846"
       y="54.762424"
       width="79.049202"
       height="41.001923"
       id="rect1283" />
    <rect
       x="30.797001"
       y="135.31483"
       width="47.037933"
       height="15.898482"
       id="rect1276" />
    <filter
       inkscape:collect="always"
       style="color-interpolation-filters:sRGB"
       id="filter1158"
       x="-8.7889661e-05"
       width="1.0001758"
       y="-5.0547231e-05"
       height="1.0001011">
      <feGaussianBlur
         inkscape:collect="always"
         stdDeviation="0.001033414"
         id="feGaussianBlur1160" />
    </filter>
  </defs>
  <sodipodi:namedview
     id="base"
     pagecolor="#ffffff"
     bordercolor="#666666"
     borderopacity="1.0"
     inkscape:pageopacity="0.0"
     inkscape:pageshadow="2"
     inkscape:zoom="2.5186919"
     inkscape:cx="74.052318"
     inkscape:cy="112.83632"
     inkscape:document-units="mm"
     inkscape:current-layer="layer5"
     inkscape:document-rotation="0"
     showgrid="false"
     showguides="true"
     inkscape:guide-bbox="true"
     inkscape:window-width="2560"
     inkscape:window-height="1376"
     inkscape:window-x="0"
     inkscape:window-y="27"
     inkscape:window-maximized="1"
     fit-margin-top="0"
     fit-margin-left="0"
     fit-margin-right="0"
     fit-margin-bottom="0"
     units="px"
     inkscape:snap-bbox="true"
     inkscape:bbox-paths="true"
     inkscape:snap-bbox-edge-midpoints="true"
     inkscape:snap-bbox-midpoints="true"
     inkscape:bbox-nodes="true"
     inkscape:object-paths="true"
     inkscape:snap-intersection-paths="true">
    <sodipodi:guide
       position="16.73294,3.9846289"
       orientation="0,-1"
       id="guide971" />
  </sodipodi:namedview>
  <metadata
     id="metadata5">
    <rdf:RDF>
      <cc:Work
         rdf:about="">
        <dc:format>image/svg+xml</dc:format>
        <dc:type
           rdf:resource="http://purl.org/dc/dcmitype/StillImage" />
        <dc:title></dc:title>
      </cc:Work>
    </rdf:RDF>
  </metadata>
  <g
     inkscape:groupmode="layer"
     id="layer3"
     inkscape:label="Personen"
     style="display:inline"
     transform="translate(-33.06063,-81.970561)"
     sodipodi:insensitive="true">
    <path
       id="path877"
       style="fill:#000100;fill-opacity:1;fill-rule:nonzero;stroke:none;stroke-width:1.00964;filter:url(#filter1158)"
       d="M 53.337891,0.00195313 A 26.064957,26.064912 0 0 0 27.271484,26.068359 26.064957,26.064912 0 0 0 51.556641,52.072266 C 20.834234,53.025839 -0.01804475,76.788341 0.00976563,105.35352 H 57.115234 a 16.290603,16.290603 0 0 1 -0.07031,-1.49414 16.290603,16.290603 0 0 1 16.291016,-16.291021 16.290603,16.290603 0 0 1 16.289062,16.291021 16.290603,16.290603 0 0 1 -0.06836,1.49414 H 106.66602 C 106.64644,76.830375 83.093867,53.047099 55.085938,52.072266 A 26.064957,26.064912 0 0 0 79.402344,26.068359 26.064957,26.064912 0 0 0 53.337891,0.00195313 Z M 154.66016,18.527344 a 23.458461,23.458421 0 0 0 -23.45899,23.458984 23.458461,23.458421 0 0 0 21.85742,23.404297 c -27.61991,0.85726 -46.37454,22.198057 -46.39062,47.869145 h -0.002 v -7.90039 H 89.554688 A 16.290603,16.290603 0 0 1 77.322266,119.6543 c 11.634076,1.46603 21.678723,9.19848 26.423824,19.67382 1.29403,0.17745 2.5124,0.47783 3.65235,0.91211 l -1.29102,6.36915 c -0.0139,-0.006 -0.0291,-0.01 -0.043,-0.0156 0.37414,1.92662 0.58176,3.90721 0.59571,5.92773 h 0.006 0.004 c 0.0381,-8.38785 2.95988,-16.10088 8.04492,-21.9707 v -10.96289 l 7.40039,-1.29101 v 5.98828 c 3.99565,-2.44544 8.63889,-4.08243 13.79297,-4.65625 a 16.290603,16.290603 0 0 1 -12.20312,-15.76953 16.290603,16.290603 0 0 1 16.29101,-16.291021 16.290603,16.290603 0 0 1 16.28907,16.291021 16.290603,16.290603 0 0 1 -12.30274,15.79492 c 4.05136,0.51051 7.91033,1.78277 11.41992,3.66406 -0.0541,0.0454 -0.11148,0.0814 -0.16406,0.13086 -0.91794,0.86057 -1.37695,2.03568 -1.37695,3.52734 0,1.49166 0.45901,2.6973 1.37695,3.61524 0.97532,0.86058 2.12382,1.29101 3.44336,1.29101 1.31955,0 2.43753,-0.43043 3.35547,-1.29101 0.49118,-0.46228 0.85775,-0.99768 1.10156,-1.60547 -2.29019,-2.23466 -4.88844,-4.14867 -7.71484,-5.66797 0.93743,-0.81411 2.02303,-1.23633 3.26562,-1.23633 1.31954,0 2.43753,0.459 3.35547,1.37695 0.97531,0.86057 1.46289,2.03569 1.46289,3.52735 0,0.74489 -0.12009,1.41945 -0.36328,2.02148 6.1796,6.0287 10.11249,14.37202 10.17578,23.51367 h 0.006 v 6.52735 c 0.13257,-2.37522 0.41138,-4.57821 0.85352,-6.58789 0.68846,-2.92594 1.72074,-5.39435 3.09765,-7.40235 1.43429,-2.06538 3.27033,-3.61379 5.50782,-4.64648 2.23748,-1.09005 4.96297,-1.63477 8.17578,-1.63477 2.12274,0 4.18731,0.22852 6.19531,0.6875 2.06202,0.40094 3.89546,0.94398 5.5,1.63086 V 113.2598 h -0.002 C 202.58928,87.625848 181.41258,66.266225 156.23242,65.390625 A 23.458461,23.458421 0 0 0 178.11914,41.986328 23.458461,23.458421 0 0 0 154.66016,18.527344 Z M 122.11523,124.28516 c -2.80462,1.7165 -5.29043,3.83004 -7.40039,6.26562 v 53.32227 c 1.60641,0.68845 3.44049,1.23316 5.50586,1.63476 2.06538,0.45897 4.16046,0.6875 6.28321,0.6875 6.08137,0 10.52668,-1.97887 13.33789,-5.9375 2.86857,-3.95863 4.30273,-9.92575 4.30273,-17.90039 0,-3.6144 -0.31423,-6.85603 -0.94531,-9.72461 -0.57372,-2.92594 -1.49173,-5.39239 -2.75391,-7.40039 -1.26217,-2.06537 -2.89825,-3.64236 -4.90625,-4.73242 -2.008,-1.14743 -4.41731,-1.72266 -7.22851,-1.72266 -1.31955,0 -2.46609,0.14479 -3.44141,0.43164 -0.91794,0.22949 -1.83596,0.57228 -2.75391,1.03125 z m -16.05078,22.30859 c -0.49123,-2.5296 -1.27564,-4.96372 -2.31836,-7.26563 -0.0736,-0.0101 -0.14463,-0.0239 -0.21875,-0.0332 -1.37691,-0.17209 -2.75394,-0.25781 -4.130856,-0.25781 -2.581717,0 -4.962463,0.28566 -7.142578,0.85937 -2.122744,0.51635 -4.015914,1.17727 -5.679687,1.98047 v 43.19922 h 7.40039 v -38.55273 c 1.835886,-0.74583 3.814754,-1.11914 5.9375,-1.11914 2.277541,0 4.326871,0.39833 6.152341,1.18945 z M 0.00976563,105.35938 v 20.08007 H 7.7460938 v 0.0996 25.11524 H 27.365234 v -25.11524 -0.0996 h 7.746094 v 0.0996 59.53711 0.0996 h 4.894531 v -32.6543 h 0.0039 c 0.07642,-16.82668 11.747599,-30.94525 29.238281,-32.89257 A 16.290603,16.290603 0 0 1 57.115234,105.35938 Z M 190.875,145.31641 c -3.44229,0 -5.96782,1.31989 -7.57422,3.95898 -1.54903,2.63909 -2.32226,6.94156 -2.32226,12.9082 0,5.39291 0.77323,9.20978 2.32226,11.44727 1.54903,2.18012 3.75838,3.26953 6.62695,3.26953 0.97532,0 1.89334,-0.11425 2.75391,-0.34375 0.91794,-0.22949 1.77883,-0.54574 2.58203,-0.94726 v -29.68946 c -0.8032,-0.22949 -1.57839,-0.37229 -2.32422,-0.42969 -0.74583,-0.11473 -1.43336,-0.17382 -2.06445,-0.17382 z m -63.42383,0.002 c 1.43429,0 2.6951,0.28761 3.78516,0.86133 1.09005,0.57371 2.00807,1.5203 2.7539,2.83984 0.8032,1.31955 1.407,3.06793 1.8086,5.24805 0.4016,2.18012 0.60156,4.87704 0.60156,8.08984 0,6.19612 -0.83232,10.64339 -2.49609,13.33985 -1.6064,2.63908 -4.07285,3.95898 -7.40039,3.95898 -0.63109,0 -1.32058,-0.0305 -2.06641,-0.0879 -0.74583,-0.11474 -1.51906,-0.28613 -2.32227,-0.51563 v -32.35742 c 1.66378,-0.91794 3.44268,-1.37695 5.33594,-1.37695 z m 45.875,19.80859 v 20.125 h 29.33008 v -1.24023 c -0.003,0.42671 -0.0248,0.83008 -0.043,1.23828 h -7.37695 c 0.0135,-0.33865 0.0273,-0.67719 0.0273,-1.03516 v -2.15039 c -0.91794,0.4016 -1.89309,0.74439 -2.92578,1.03125 -1.03268,0.22949 -2.20975,0.34571 -3.5293,0.34571 -5.39292,0 -9.35065,-1.83605 -11.875,-5.50782 -2.09542,-3.1675 -3.29167,-7.44505 -3.60742,-12.80664 z"
       transform="matrix(0.26458333,0,0,0.26458333,33.06063,81.970561)" />
    <path
       id="rect10-1-9-6"
       style="fill:#000100;fill-opacity:1;fill-rule:nonzero;stroke:none;stroke-width:1.00964;filter:url(#filter1158)"
       d="M 27.365234,185.07617 V 157.36719 H 7.7460938 v 27.70898 z"
       transform="matrix(0.26458333,0,0,0.26458333,33.06063,81.970561)" />
  </g>
  <g
     inkscape:groupmode="layer"
     id="layer5"
     inkscape:label="Text"
     style="display:inline"
     transform="translate(-4.9340382e-7,-0.05291727)"
     sodipodi:insensitive="true">
    <path
       d="m 14.321851,43.62485 q 0.02277,0.865233 0.159385,1.593851 0.136616,0.705848 0.432617,1.252311 0.31877,0.523694 0.819695,0.819695 0.523693,0.296001 1.320619,0.296001 0.660309,0 1.206773,-0.182154 0.569233,-0.204924 0.819694,-0.34154 l 0.364309,1.571082 q -0.296,0.204923 -1.001849,0.432616 -0.683079,0.250462 -1.63939,0.250462 -1.252311,0 -2.117544,-0.455386 -0.842464,-0.455385 -1.388927,-1.27508 -0.523694,-0.819695 -0.751387,-1.95816 -0.227693,-1.138465 -0.227693,-2.504623 0,-3.301548 1.092926,-4.827091 1.092926,-1.525543 2.891701,-1.525543 2.026468,0 2.868932,1.525543 0.842463,1.525543 0.842463,4.280628 0,0.250462 0,0.523694 0,0.250462 -0.02277,0.523694 z m 1.980929,-5.191401 q -0.97908,0 -1.434466,0.979081 -0.432617,0.979079 -0.523694,2.618469 h 3.620319 q 0,-1.662159 -0.34154,-2.618469 -0.341539,-0.979081 -1.320619,-0.979081 z"
       style="font-style:normal;font-variant:normal;font-weight:normal;font-stretch:normal;font-size:22.5778px;line-height:1.25;font-family:'Ubuntu Condensed';-inkscape-font-specification:'Ubuntu Condensed, Normal';font-variant-ligatures:normal;font-variant-caps:normal;font-variant-numeric:normal;font-variant-east-asian:normal;white-space:pre;fill:#000000;fill-opacity:1;stroke:none;stroke-width:1.00848"
       id="path1527" />
    <path
       style="font-style:normal;font-variant:normal;font-weight:normal;font-stretch:normal;font-size:22.5778px;line-height:1.25;font-family:'Ubuntu Condensed';-inkscape-font-specification:'Ubuntu Condensed, Normal';font-variant-ligatures:normal;font-variant-caps:normal;font-variant-numeric:normal;font-variant-east-asian:normal;white-space:pre;fill:#000000;fill-opacity:1;stroke:none;stroke-width:1.00848"
       d="m 42.965562,49.021174 h -1.95816 V 37.067291 h 1.95816 z"
       id="path1533" />
    <path
       id="path1535"
       style="font-style:normal;font-variant:normal;font-weight:normal;font-stretch:normal;font-size:22.5778px;line-height:1.25;font-family:'Ubuntu Condensed';-inkscape-font-specification:'Ubuntu Condensed, Normal';font-variant-ligatures:normal;font-variant-caps:normal;font-variant-numeric:normal;font-variant-east-asian:normal;white-space:pre;fill:#000000;fill-opacity:1;stroke:none;stroke-width:3.81158"
       d="m 195.23633,185.25 c -0.13382,3.3523 -0.92374,5.76944 -2.38281,7.22852 -1.6064,1.6064 -3.81576,2.4082 -6.62696,2.4082 -1.6064,0 -3.15482,-0.22853 -4.64648,-0.6875 -1.49166,-0.45897 -2.75443,-0.97511 -3.78711,-1.54883 l -1.54883,6.19531 c 1.54903,0.8032 3.24224,1.40504 5.07813,1.80664 1.83588,0.4016 3.67192,0.60352 5.50781,0.60352 2.18012,0 4.21611,-0.31618 6.10937,-0.94727 1.95063,-0.63108 3.64384,-1.6348 5.07813,-3.01171 1.43428,-1.37692 2.55227,-3.18439 3.35547,-5.42188 0.7244,-1.83516 1.12561,-4.0581 1.24023,-6.625 z"
       transform="matrix(0.26458333,0,0,0.26458333,4.9340382e-7,0.05291727)" />
  </g>
</svg>
